<?xml version="1.0" encoding="utf-8"?>
<!-- Generator: Adobe Illustrator 27.1.1, SVG Export Plug-In . SVG Version: 6.00 Build 0)  -->
<svg version="1.1" id="Layer_1" xmlns="http://www.w3.org/2000/svg" xmlns:xlink="http://www.w3.org/1999/xlink" x="0px" y="0px"
	 viewBox="0 0 691.2 248" style="enable-background:new 0 0 691.2 248;" xml:space="preserve">
<style type="text/css">
	.st0{fill:#FFFFFF;}
</style>
<g>
	<g>
		<g>
			<path class="st0" d="M320.8,133.1c-2.6,0-5-0.6-7.1-1.7c-2.2-1.1-3.9-2.7-5.3-4.6l7.1-5.3c0.6,0.9,1.4,1.5,2.3,2s1.9,0.7,3.1,0.7
				c1.9,0,3.4-0.6,4.7-1.9c1.3-1.3,1.9-2.8,1.9-4.7V83.3h9.2v34.3c0,2.3-0.4,4.4-1.2,6.3s-1.9,3.5-3.4,4.9c-1.4,1.4-3.1,2.5-5,3.2
				C325.1,132.8,323,133.1,320.8,133.1z"/>
			<path class="st0" d="M378.6,126.5h-0.1c-0.6,0.9-1.4,1.7-2.2,2.5c-0.8,0.8-1.8,1.5-2.8,2.1s-2.2,1.1-3.4,1.5
				c-1.3,0.4-2.6,0.6-4.1,0.6c-2.6,0-5-0.5-7.3-1.5s-4.3-2.4-6-4.2s-3.1-3.9-4.1-6.3s-1.5-5.1-1.5-7.9s0.5-5.5,1.5-7.9
				s2.3-4.5,4.1-6.3c1.7-1.8,3.7-3.2,6-4.2s4.7-1.5,7.3-1.5c1.5,0,2.8,0.2,4.1,0.5c1.3,0.3,2.4,0.8,3.4,1.4s2,1.3,2.8,2.1
				c0.8,0.8,1.6,1.6,2.2,2.5h0.1v-5.5h9V132h-9V126.5z M378.6,113.2c0-1.5-0.3-2.9-0.8-4.3c-0.6-1.3-1.3-2.5-2.3-3.5
				s-2.2-1.8-3.5-2.4s-2.8-0.9-4.4-0.9c-1.5,0-2.9,0.3-4.3,0.9c-1.3,0.6-2.5,1.4-3.5,2.4s-1.8,2.2-2.4,3.5s-0.9,2.8-0.9,4.3
				s0.3,3,0.9,4.3c0.6,1.4,1.4,2.5,2.4,3.5s2.2,1.8,3.5,2.4s2.8,0.9,4.3,0.9c1.6,0,3-0.3,4.4-0.9c1.3-0.6,2.5-1.4,3.5-2.4
				s1.8-2.2,2.3-3.5C378.3,116.1,378.6,114.7,378.6,113.2z"/>
			<path class="st0" d="M429.5,126.5h-0.1c-0.6,0.9-1.4,1.7-2.2,2.5c-0.8,0.8-1.8,1.5-2.8,2.1s-2.2,1.1-3.4,1.5
				c-1.3,0.4-2.6,0.6-4.1,0.6c-2.6,0-5-0.5-7.3-1.5s-4.3-2.4-6-4.2s-3.1-3.9-4.1-6.3s-1.5-5.1-1.5-7.9s0.5-5.5,1.5-7.9
				s2.3-4.5,4.1-6.3c1.7-1.8,3.7-3.2,6-4.2s4.7-1.5,7.3-1.5c1.5,0,2.8,0.2,4.1,0.5c1.3,0.3,2.4,0.8,3.4,1.4s2,1.3,2.8,2.1
				c0.8,0.8,1.6,1.6,2.2,2.5h0.1v-5.5h9V132h-9V126.5z M429.5,113.2c0-1.5-0.3-2.9-0.8-4.3c-0.6-1.3-1.3-2.5-2.3-3.5
				s-2.2-1.8-3.5-2.4s-2.8-0.9-4.4-0.9c-1.5,0-2.9,0.3-4.3,0.9c-1.3,0.6-2.5,1.4-3.5,2.4s-1.8,2.2-2.4,3.5s-0.9,2.8-0.9,4.3
				s0.3,3,0.9,4.3c0.6,1.4,1.4,2.5,2.4,3.5s2.2,1.8,3.5,2.4s2.8,0.9,4.3,0.9c1.6,0,3-0.3,4.4-0.9c1.3-0.6,2.5-1.4,3.5-2.4
				s1.8-2.2,2.3-3.5C429.2,116.1,429.5,114.7,429.5,113.2z"/>
			<path class="st0" d="M450.1,132V94.4h8.4v5.4h0.1c1-1.8,2.5-3.4,4.5-4.6c2-1.3,4.4-1.9,7.2-1.9c2.2,0,4.1,0.4,5.9,1.2
				c1.8,0.8,3.3,1.9,4.6,3.3c1.3,1.4,2.3,3.1,3,5.1s1.1,4.1,1.1,6.5V132h-9.1v-21.6c0-1.2-0.2-2.3-0.6-3.2c-0.4-1-1-1.9-1.8-2.6
				c-0.8-0.8-1.6-1.4-2.6-1.8s-2.1-0.6-3.2-0.6c-1.2,0-2.3,0.2-3.2,0.6c-1,0.4-1.9,1-2.6,1.8c-0.8,0.8-1.4,1.6-1.8,2.6
				s-0.7,2.1-0.7,3.2V132H450.1z"/>
			<path class="st0" d="M511.9,134.4l-19.6-40h9.9l9.6,20.1h0.3l9.6-20.1h9.9L511.9,134.4z"/>
			<path class="st0" d="M539.6,87.1c0-1.4,0.5-2.6,1.5-3.6s2.2-1.5,3.6-1.5c1.4,0,2.6,0.5,3.6,1.5s1.5,2.2,1.5,3.6s-0.5,2.6-1.5,3.6
				s-2.2,1.5-3.6,1.5c-1.4,0-2.6-0.5-3.6-1.5S539.6,88.5,539.6,87.1z M549.3,94.4V132h-9.1V94.4H549.3z"/>
			<path class="st0" d="M575.5,125.2c1.8,0.1,3.3-0.1,4.5-0.8c1.1-0.7,1.9-1.5,2.2-2.3c0.3-0.9,0.2-1.8-0.3-2.6
				c-0.5-0.9-1.6-1.5-3.2-1.8l-7.9-1.2c-3.1-0.5-5.6-1.7-7.5-3.6s-2.9-4.5-2.9-7.7c0-1.8,0.4-3.4,1.1-4.9c0.8-1.5,1.8-2.7,3.1-3.8
				c1.3-1,2.9-1.8,4.8-2.4c1.9-0.6,3.9-0.8,6.1-0.8c2.9,0,5.6,0.4,8.1,1.2c2.6,0.8,4.9,1.9,6.9,3.2l-4,6.7c-1.3-1-2.9-1.8-4.9-2.3
				c-2-0.6-4-0.8-6.1-0.8c-2,0-3.5,0.3-4.5,0.9s-1.6,1.3-1.7,2.1c-0.2,0.8,0.1,1.6,0.7,2.3s1.5,1.2,2.6,1.3l8.1,1.2
				c1.3,0.2,2.6,0.6,3.9,1.2c1.3,0.6,2.5,1.3,3.6,2.3s2,2.2,2.6,3.6c0.7,1.4,1,3.1,1,5.1c0,1.9-0.4,3.5-1.3,5
				c-0.9,1.5-2,2.7-3.5,3.7s-3.2,1.8-5.2,2.3s-4.1,0.8-6.3,0.8c-3.1,0-6-0.4-8.7-1.2s-5.1-1.9-7.2-3.2l4.5-7.1c1.4,1,3.1,1.8,5,2.4
				C571.1,124.7,573.2,125.1,575.5,125.2z"/>
			<path class="st0" d="M618.8,132h-4.4c-1.6,0-3-0.3-4.4-0.9s-2.6-1.4-3.6-2.4s-1.8-2.2-2.4-3.5c-0.6-1.3-0.9-2.8-0.9-4.4v-18.5
				h-3.4v-8.1h3.4v-8.5h9.1v8.5h5.5v8.1h-5.5v18.5c0,0.6,0.2,1.2,0.6,1.6c0.4,0.4,1,0.7,1.6,0.7h4.4L618.8,132L618.8,132z"/>
			<path class="st0" d="M657.8,126.5L657.8,126.5c-0.7,0.9-1.5,1.7-2.3,2.5s-1.8,1.5-2.8,2.1s-2.2,1.1-3.4,1.5
				c-1.3,0.4-2.6,0.6-4.1,0.6c-2.6,0-5-0.5-7.3-1.5s-4.3-2.4-6-4.2s-3.1-3.9-4.1-6.3s-1.5-5.1-1.5-7.9s0.5-5.5,1.5-7.9
				s2.3-4.5,4.1-6.3c1.7-1.8,3.7-3.2,6-4.2s4.7-1.5,7.3-1.5c1.5,0,2.8,0.2,4.1,0.5s2.4,0.8,3.4,1.4s2,1.3,2.8,2.1
				c0.8,0.8,1.6,1.6,2.2,2.5h0.1v-5.5h9V132h-9V126.5z M657.8,113.2c0-1.5-0.3-2.9-0.8-4.3c-0.6-1.3-1.3-2.5-2.3-3.5
				s-2.2-1.8-3.5-2.4s-2.8-0.9-4.4-0.9c-1.5,0-2.9,0.3-4.3,0.9c-1.3,0.6-2.5,1.4-3.5,2.4s-1.8,2.2-2.4,3.5c-0.6,1.3-0.9,2.8-0.9,4.3
				s0.3,3,0.9,4.3c0.6,1.4,1.4,2.5,2.4,3.5s2.2,1.8,3.5,2.4s2.8,0.9,4.3,0.9c1.6,0,3-0.3,4.4-0.9c1.3-0.6,2.5-1.4,3.5-2.4
				s1.8-2.2,2.3-3.5C657.5,116.1,657.8,114.7,657.8,113.2z"/>
			<path class="st0" d="M354.8,187.5c-2.3,2.7-5.2,4.9-8.5,6.5s-7,2.4-10.9,2.4c-3.6,0-7-0.6-10.2-1.9s-6-3.1-8.3-5.4
				c-2.4-2.3-4.2-5-5.6-8.1s-2-6.5-2-10.1s0.7-7,2-10.1s3.2-5.8,5.6-8.1s5.1-4.1,8.3-5.4s6.6-2,10.2-2c3.5,0,6.8,0.7,9.9,2
				s5.8,3.2,8.2,5.5l-6.3,6.2c-1.5-1.5-3.3-2.7-5.3-3.6c-2-0.9-4.2-1.3-6.5-1.3s-4.4,0.4-6.4,1.3c-2,0.9-3.7,2-5.3,3.5
				c-1.5,1.5-2.7,3.2-3.6,5.3s-1.3,4.2-1.3,6.5s0.4,4.5,1.3,6.5s2.1,3.8,3.6,5.3s3.3,2.7,5.3,3.5c2,0.9,4.1,1.3,6.4,1.3
				c2,0,3.9-0.3,5.7-1c1.8-0.7,3.4-1.6,4.9-2.8v-8.4h-10.6v-8.9h19.4L354.8,187.5L354.8,187.5z"/>
			<path class="st0" d="M362.3,146.6h9.1v48.7h-9.1V146.6z"/>
			<path class="st0" d="M419.1,176.5c0,2.9-0.5,5.5-1.6,7.9s-2.5,4.5-4.4,6.3c-1.8,1.8-4,3.2-6.5,4.2s-5.2,1.5-8.1,1.5
				s-5.5-0.5-8-1.5s-4.7-2.4-6.5-4.2s-3.3-3.9-4.4-6.3c-1.1-2.4-1.6-5.1-1.6-7.9c0-2.9,0.5-5.5,1.6-7.9s2.5-4.5,4.4-6.3
				c1.8-1.8,4-3.2,6.5-4.2s5.2-1.5,8-1.5c2.9,0,5.5,0.5,8.1,1.5c2.5,1,4.7,2.4,6.5,4.2s3.3,3.9,4.4,6.3
				C418.5,171,419.1,173.6,419.1,176.5z M409.6,176.5c0-1.5-0.3-2.9-0.9-4.3c-0.6-1.3-1.4-2.5-2.4-3.5s-2.2-1.8-3.5-2.4
				c-1.3-0.6-2.8-0.9-4.4-0.9c-1.5,0-2.9,0.3-4.3,0.9c-1.3,0.6-2.5,1.4-3.5,2.4s-1.8,2.2-2.4,3.5s-0.9,2.8-0.9,4.3s0.3,3,0.9,4.3
				c0.6,1.4,1.4,2.5,2.4,3.5s2.2,1.8,3.5,2.4c1.3,0.6,2.7,0.9,4.3,0.9c1.6,0,3-0.3,4.4-0.9s2.5-1.4,3.5-2.4s1.8-2.2,2.4-3.5
				C409.3,179.4,409.6,178,409.6,176.5z"/>
			<path class="st0" d="M433.9,195.3h-8.4v-48.7h9.1v16.6h0.1c1.3-1.8,3-3.3,5.1-4.6c2-1.3,4.5-2,7.5-2c2.6,0,5,0.5,7.3,1.5
				s4.3,2.4,6,4.2s3.1,3.9,4.1,6.3c1,2.4,1.5,5.1,1.5,7.9c0,2.9-0.5,5.5-1.5,7.9s-2.4,4.5-4.1,6.3s-3.7,3.2-6,4.2s-4.7,1.5-7.3,1.5
				c-1.6,0-3-0.2-4.4-0.6c-1.3-0.4-2.6-0.9-3.7-1.6c-1.1-0.7-2.1-1.5-3-2.4s-1.6-1.9-2.3-2.9h-0.1L433.9,195.3L433.9,195.3z
				 M434.7,176.5c0,1.5,0.3,3,0.9,4.3c0.6,1.4,1.4,2.5,2.4,3.5s2.2,1.8,3.5,2.4c1.3,0.6,2.8,0.9,4.3,0.9c1.6,0,3-0.3,4.4-0.9
				c1.3-0.6,2.5-1.4,3.5-2.4s1.8-2.2,2.3-3.5c0.6-1.4,0.8-2.8,0.8-4.3s-0.3-2.9-0.8-4.3c-0.6-1.3-1.3-2.5-2.3-3.5s-2.2-1.8-3.5-2.4
				c-1.3-0.6-2.8-0.9-4.4-0.9c-1.5,0-2.9,0.3-4.3,0.9c-1.3,0.6-2.5,1.4-3.5,2.4s-1.8,2.2-2.4,3.5S434.7,175,434.7,176.5z"/>
			<path class="st0" d="M501.9,189.8h-0.1c-0.6,0.9-1.4,1.7-2.2,2.5c-0.8,0.8-1.8,1.5-2.8,2.1s-2.2,1.1-3.4,1.5
				c-1.3,0.4-2.6,0.6-4.1,0.6c-2.6,0-5-0.5-7.3-1.5s-4.3-2.4-6-4.2s-3.1-3.9-4.1-6.3c-1-2.4-1.5-5.1-1.5-7.9c0-2.9,0.5-5.5,1.5-7.9
				s2.3-4.5,4.1-6.3c1.7-1.8,3.7-3.2,6-4.2s4.7-1.5,7.3-1.5c1.5,0,2.8,0.2,4.1,0.5s2.4,0.8,3.4,1.4c1,0.6,2,1.3,2.8,2.1
				s1.6,1.6,2.2,2.5h0.1v-5.5h9v37.6h-9V189.8z M501.9,176.5c0-1.5-0.3-2.9-0.8-4.3c-0.6-1.3-1.3-2.5-2.3-3.5s-2.2-1.8-3.5-2.4
				c-1.3-0.6-2.8-0.9-4.4-0.9c-1.5,0-2.9,0.3-4.3,0.9c-1.3,0.6-2.5,1.4-3.5,2.4s-1.8,2.2-2.4,3.5s-0.9,2.8-0.9,4.3s0.3,3,0.9,4.3
				c0.6,1.4,1.4,2.5,2.4,3.5s2.2,1.8,3.5,2.4c1.3,0.6,2.8,0.9,4.3,0.9c1.6,0,3-0.3,4.4-0.9c1.3-0.6,2.5-1.4,3.5-2.4s1.8-2.2,2.3-3.5
				C501.6,179.4,501.9,178,501.9,176.5z"/>
			<path class="st0" d="M518.7,146.6h9.1v48.7h-9.1V146.6z"/>
			<path class="st0" d="M586.7,195.3h-33.5v-48.7h9.2v39.9h24.3V195.3z"/>
			<path class="st0" d="M625.1,195.3h-33.5v-48.7h9.2v39.9h24.3V195.3z"/>
			<path class="st0" d="M668.6,163.2c0,2.4-0.4,4.6-1.3,6.6c-0.9,2-2.1,3.8-3.7,5.3c-1.6,1.5-3.4,2.6-5.5,3.5
				c-2.1,0.8-4.3,1.3-6.7,1.3h-12.2v15.5H630v-48.7h21.4c2.4,0,4.6,0.4,6.7,1.3c2.1,0.8,3.9,2,5.5,3.5s2.8,3.2,3.7,5.3
				C668.1,158.6,668.6,160.8,668.6,163.2z M659.2,163.2c0-1.1-0.2-2.1-0.6-3c-0.4-0.9-1-1.7-1.7-2.4s-1.5-1.2-2.5-1.7
				c-1-0.4-2-0.6-3-0.6h-12.2V171h12.2c1,0,2-0.2,3-0.6c1-0.4,1.8-1,2.5-1.7s1.2-1.5,1.7-2.4C659,165.3,659.2,164.3,659.2,163.2z"/>
		</g>
	</g>
	<g>
		<path class="st0" d="M394.9,224v1.3H387v-10.8h7.6v1.3h-6.1v3.3h5.4v1.3h-5.4v3.5L394.9,224L394.9,224z"/>
		<path class="st0" d="M402.9,225.3l-2.4-3.1l-2.4,3.1h-1.6l3.2-4.2l-3.1-4h1.6l2.2,2.9l2.2-2.9h1.6l-3.1,4l3.2,4.2H402.9z"/>
		<path class="st0" d="M415.5,221.2c0,2.5-1.7,4.2-4.1,4.2c-1.2,0-2.2-0.4-2.8-1.3v4.2H407v-11.1h1.4v1.3c0.7-0.9,1.7-1.4,2.9-1.4
			C413.7,217.1,415.5,218.7,415.5,221.2z M414,221.2c0-1.7-1.2-2.9-2.8-2.9c-1.6,0-2.7,1.1-2.7,2.9c0,1.7,1.2,2.9,2.7,2.9
			C412.8,224.1,414,223,414,221.2z"/>
		<path class="st0" d="M417.5,221.2c0-2.4,1.8-4.2,4.2-4.2c2.4,0,4.2,1.7,4.2,4.2s-1.8,4.2-4.2,4.2S417.5,223.7,417.5,221.2z
			 M424.5,221.2c0-1.7-1.2-2.9-2.7-2.9c-1.6,0-2.8,1.1-2.8,2.9c0,1.7,1.2,2.9,2.8,2.9C423.3,224.1,424.5,223,424.5,221.2z"/>
		<path class="st0" d="M433.2,217.1v1.4c-0.1,0-0.2,0-0.3,0c-1.6,0-2.6,1-2.6,2.8v4.1h-1.5v-8.2h1.4v1.4
			C430.8,217.6,431.8,217.1,433.2,217.1z"/>
		<path class="st0" d="M440.7,224.8c-0.4,0.4-1.1,0.6-1.8,0.6c-1.6,0-2.6-0.9-2.6-2.6v-4.5H435v-1.2h1.4v-1.8h1.5v1.8h2.3v1.2h-2.3
			v4.4c0,0.9,0.5,1.4,1.3,1.4c0.4,0,0.8-0.1,1.2-0.4L440.7,224.8z"/>
		<path class="st0" d="M443,214.6c0-0.5,0.4-1,1-1s1,0.4,1,0.9c0,0.6-0.4,1-1,1C443.4,215.6,443,215.2,443,214.6z M443.3,217.1h1.5
			v8.2h-1.5V217.1z"/>
		<path class="st0" d="M456.1,220.6v4.7h-1.5v-4.5c0-1.6-0.8-2.4-2.2-2.4c-1.6,0-2.6,0.9-2.6,2.7v4.2h-1.5v-8.2h1.4v1.2
			c0.6-0.8,1.6-1.3,2.9-1.3C454.7,217.1,456.1,218.2,456.1,220.6z"/>
		<path class="st0" d="M467.4,217.1v7.1c0,2.9-1.5,4.2-4.2,4.2c-1.5,0-3-0.4-3.9-1.2l0.7-1.1c0.8,0.6,1.9,1.1,3.1,1.1
			c1.9,0,2.8-0.9,2.8-2.7v-0.6c-0.7,0.8-1.8,1.3-2.9,1.3c-2.4,0-4.1-1.6-4.1-4s1.8-3.9,4.1-3.9c1.2,0,2.3,0.4,3,1.3v-1.3h1.4V217.1z
			 M466,221c0-1.6-1.2-2.6-2.8-2.6c-1.6,0-2.8,1.1-2.8,2.6c0,1.6,1.2,2.7,2.8,2.7S466,222.6,466,221z"/>
		<path class="st0" d="M484,224v1.3h-7.8v-10.8h7.6v1.3h-6.1v3.3h5.4v1.3h-5.4v3.5L484,224L484,224z"/>
		<path class="st0" d="M492,225.3l-2.4-3.1l-2.4,3.1h-1.6l3.2-4.2l-3.1-4h1.6l2.2,2.9l2.2-2.9h1.6l-3.1,4l3.2,4.2H492z"/>
		<path class="st0" d="M495.1,221.2c0-2.4,1.8-4.2,4.3-4.2c1.5,0,2.7,0.6,3.3,1.7l-1.1,0.7c-0.5-0.8-1.3-1.2-2.2-1.2
			c-1.6,0-2.8,1.1-2.8,2.9c0,1.8,1.2,2.9,2.8,2.9c0.9,0,1.7-0.4,2.2-1.2l1.1,0.7c-0.6,1.1-1.9,1.8-3.3,1.8
			C496.9,225.4,495.1,223.7,495.1,221.2z"/>
		<path class="st0" d="M512.6,221.7H506c0.2,1.4,1.3,2.4,3,2.4c1,0,1.8-0.3,2.4-1l0.8,1c-0.7,0.9-1.9,1.3-3.2,1.3
			c-2.6,0-4.4-1.7-4.4-4.2c0-2.4,1.7-4.2,4.1-4.2s4,1.7,4,4.2C512.6,221.4,512.6,221.6,512.6,221.7z M506,220.7h5.2
			c-0.2-1.4-1.2-2.3-2.6-2.3C507.2,218.3,506.1,219.3,506,220.7z"/>
		<path class="st0" d="M515.4,213.9h1.5v11.4h-1.5V213.9z"/>
		<path class="st0" d="M520.5,213.9h1.5v11.4h-1.5V213.9z"/>
		<path class="st0" d="M532.9,221.7h-6.6c0.2,1.4,1.3,2.4,3,2.4c1,0,1.8-0.3,2.4-1l0.8,1c-0.7,0.9-1.9,1.3-3.2,1.3
			c-2.6,0-4.4-1.7-4.4-4.2c0-2.4,1.7-4.2,4.1-4.2s4,1.7,4,4.2C533,221.4,532.9,221.6,532.9,221.7z M526.3,220.7h5.2
			c-0.2-1.4-1.2-2.3-2.6-2.3C527.5,218.3,526.5,219.3,526.3,220.7z"/>
		<path class="st0" d="M543.5,220.6v4.7H542v-4.5c0-1.6-0.8-2.4-2.2-2.4c-1.6,0-2.6,0.9-2.6,2.7v4.2h-1.5v-8.2h1.4v1.2
			c0.6-0.8,1.6-1.3,2.9-1.3C542.1,217.1,543.5,218.2,543.5,220.6z"/>
		<path class="st0" d="M546.3,221.2c0-2.4,1.8-4.2,4.3-4.2c1.5,0,2.7,0.6,3.3,1.7l-1.1,0.7c-0.5-0.8-1.3-1.2-2.2-1.2
			c-1.6,0-2.8,1.1-2.8,2.9c0,1.8,1.2,2.9,2.8,2.9c0.9,0,1.7-0.4,2.2-1.2l1.1,0.7c-0.6,1.1-1.9,1.8-3.3,1.8
			C548.1,225.4,546.3,223.7,546.3,221.2z"/>
		<path class="st0" d="M563.8,221.7h-6.6c0.2,1.4,1.3,2.4,3,2.4c1,0,1.8-0.3,2.4-1l0.8,1c-0.7,0.9-1.9,1.3-3.2,1.3
			c-2.6,0-4.4-1.7-4.4-4.2c0-2.4,1.7-4.2,4.1-4.2s4,1.7,4,4.2C563.9,221.4,563.9,221.6,563.8,221.7z M557.2,220.7h5.2
			c-0.2-1.4-1.2-2.3-2.6-2.3C558.4,218.3,557.4,219.3,557.2,220.7z"/>
		<path class="st0" d="M568.1,224.3c0,0.3-0.1,0.5-0.3,1.1l-0.7,2.1h-1l0.6-2.3c-0.4-0.1-0.6-0.5-0.6-1c0-0.6,0.4-1,1-1
			S568.1,223.7,568.1,224.3z"/>
		<path class="st0" d="M583.9,224v1.3h-7.8v-10.8h7.6v1.3h-6.1v3.3h5.4v1.3h-5.4v3.5L583.9,224L583.9,224z"/>
		<path class="st0" d="M594,217.1l-3.6,8.2H589l-3.6-8.2h1.5l2.8,6.5l2.9-6.5H594z"/>
		<path class="st0" d="M603.3,221.7h-6.6c0.2,1.4,1.3,2.4,3,2.4c1,0,1.8-0.3,2.4-1l0.8,1c-0.7,0.9-1.9,1.3-3.2,1.3
			c-2.6,0-4.4-1.7-4.4-4.2c0-2.4,1.7-4.2,4.1-4.2s4,1.7,4,4.2C603.3,221.4,603.3,221.6,603.3,221.7z M596.7,220.7h5.2
			c-0.2-1.4-1.2-2.3-2.6-2.3C597.9,218.3,596.8,219.3,596.7,220.7z"/>
		<path class="st0" d="M610.5,217.1v1.4c-0.1,0-0.2,0-0.3,0c-1.6,0-2.6,1-2.6,2.8v4.1h-1.5v-8.2h1.4v1.4
			C608.1,217.6,609.1,217.1,610.5,217.1z"/>
		<path class="st0" d="M620.7,217.1l-4,9c-0.7,1.7-1.7,2.3-2.9,2.3c-0.8,0-1.6-0.3-2.1-0.8l0.6-1.1c0.4,0.4,0.9,0.6,1.5,0.6
			c0.7,0,1.2-0.3,1.6-1.3l0.3-0.6l-3.6-8.1h1.5l2.8,6.5l2.8-6.5L620.7,217.1L620.7,217.1z"/>
		<path class="st0" d="M635.1,217.1l-3,8.2h-1.4l-2.4-6.2l-2.4,6.2h-1.4l-3-8.2h1.4l2.4,6.5l2.5-6.5h1.2l2.4,6.5l2.4-6.5H635.1z"/>
		<path class="st0" d="M645.1,220.6v4.7h-1.5v-4.5c0-1.6-0.8-2.4-2.2-2.4c-1.6,0-2.6,0.9-2.6,2.7v4.2h-1.5v-11.4h1.5v4.4
			c0.6-0.8,1.6-1.2,2.9-1.2C643.7,217.1,645.1,218.2,645.1,220.6z"/>
		<path class="st0" d="M656,221.7h-6.6c0.2,1.4,1.3,2.4,3,2.4c1,0,1.8-0.3,2.4-1l0.8,1c-0.7,0.9-1.9,1.3-3.2,1.3
			c-2.6,0-4.4-1.7-4.4-4.2c0-2.4,1.7-4.2,4.1-4.2s4,1.7,4,4.2C656,221.4,656,221.6,656,221.7z M649.3,220.7h5.2
			c-0.2-1.4-1.2-2.3-2.6-2.3C650.5,218.3,649.5,219.3,649.3,220.7z"/>
		<path class="st0" d="M663.2,217.1v1.4c-0.1,0-0.2,0-0.3,0c-1.6,0-2.6,1-2.6,2.8v4.1h-1.5v-8.2h1.4v1.4
			C660.8,217.6,661.8,217.1,663.2,217.1z"/>
		<path class="st0" d="M673.1,221.7h-6.6c0.2,1.4,1.3,2.4,3,2.4c1,0,1.8-0.3,2.4-1l0.8,1c-0.7,0.9-1.9,1.3-3.2,1.3
			c-2.6,0-4.4-1.7-4.4-4.2c0-2.4,1.7-4.2,4.1-4.2s4,1.7,4,4.2C673.1,221.4,673.1,221.6,673.1,221.7z M666.4,220.7h5.2
			c-0.2-1.4-1.2-2.3-2.6-2.3C667.6,218.3,666.6,219.3,666.4,220.7z"/>
	</g>
	<path class="st0" d="M18.1,132.8c0,0,17.5,17.2,27.4,32.6s32.6,51.4,84.3,60.2s137.3-39.9,230.6-3.8
		C360.3,221.7,145.6,114.7,18.1,132.8z"/>
	<path class="st0" d="M177.2,230.5c53-17,136.3-26.6,187.5-1.7c-7.7-1.9-15.4-3.3-23.2-4.3C286.8,218,231.9,225.3,177.2,230.5
		L177.2,230.5z"/>
	<g>
		<g>
			<g>
				<path class="st0" d="M254.7,78c0.5,0,0.8-0.6,0.5-0.9c-16.1-19.3-39.7-32.3-66.8-34.5c-51.8-4.1-97.2,33.2-103.8,84.1
					c-0.1,0.5,0.3,1,0.9,1c2.4,0,5-0.1,7.9-0.1c0.5,0,0.9-0.4,1-0.8c1.2-8.1,3.6-15.8,6.8-23.1l26.6,2.1c-1.9,7-3.4,14.3-4.4,21.9
					c-0.1,0.7,0.4,1.3,1.1,1.3c2.4,0.2,4.8,0.5,7.2,0.8c0.7,0.1,1.3-0.4,1.4-1.1c1-7.7,2.5-15.1,4.5-22.1l37.2,2.9
					c1.3,0.1,2.6-0.5,3.3-1.6c2.5-3.9,5.8-7.8,9.8-11.4c0.7-0.6,1.2-1.5,1.2-2.4l3.3-41.1c10.9,3,20.3,13,27,27.2
					c0.2,0.3,0.5,0.5,0.9,0.4c2.6-0.6,5.4-1.1,8.3-1.5c0.4-0.1,0.7-0.5,0.5-0.9c-2.9-6.6-6.3-12.5-10.2-17.5
					c8.8,4.3,16.8,10,23.6,16.9c0.2,0.2,0.5,0.3,0.7,0.3C246.8,77.8,250.7,77.8,254.7,78z M130.7,96.4l-24.8-2
					c11.1-18.5,28.8-32.3,49.6-38.6C145.3,65.3,136.7,79.4,130.7,96.4z M179,100.2l-38.3-3c9.4-25.3,25.3-43,42.1-44.9L179,100.2z"
					/>
			</g>
		</g>
	</g>
	<path class="st0" d="M78,127.1c-0.8-40.6,29.2-78.7,68.1-89.5c12.9-3.7,26.5-4.6,39.5-2.3c-19.6,0.3-38.6,5.1-55.3,14.9
		C102.2,66.3,83.3,95.2,78,127.1L78,127.1z"/>
	<g>
		<path class="st0" d="M181.6,30.7c1.2,1.5,4.8,4.7,4.8,4.7s-2,1.8-2.8,2.8c-0.3,0.4,2,0.3,2,0.3l2.5-1.2c0,0,24.5,3.1,25.2,3.2
			c0.7,0.1,10.7,0.6,12-1.2c1.2-1.8-8.5-4-18.1-5.2l-15.8-16.6H189c-0.3,0-0.5,0.3-0.3,0.6l9.7,15.5l-9.5,0.4l-4.8-3.4
			C184,30.7,181.3,30.2,181.6,30.7z"/>
		<path class="st0" d="M190.6,33.4l-1.6,0.2l-3.6-2.5l-0.7-1.2c-0.2-0.5,0.1-1,0.6-1h0.2c0.6,0,1.2,0.3,1.6,0.8L190.6,33.4z"/>
	</g>
	<g>
		<g>
			<g>
				<path class="st0" d="M236.5,118.6l2.3-7.7c0.3-0.8-0.2-1.7-1.1-2l-23.1-6.9c-0.8-0.3-1.7,0.2-2,1.1l-1.1,3.8
					C211.5,106.9,227.1,111.3,236.5,118.6z"/>
				<path class="st0" d="M240.2,120.9l6.5,4.2c0.4,0.3,1,0.1,1.2-0.4l2.4-8c0.1-0.3,0-0.7-0.3-0.9l-6.4-4.3c-0.4-0.3-1-0.1-1.2,0.4
					L240,120C239.8,120.4,239.9,120.7,240.2,120.9z"/>
				<path class="st0" d="M211.4,141.8l-48.7-14.6c-0.5-0.2-1,0.1-1.2,0.6L160,133c-0.2,0.5,0.1,1,0.6,1.2l48.7,14.6
					c0.5,0.2,1-0.1,1.2-0.6l1.5-5.1C212.2,142.5,211.9,142,211.4,141.8z"/>
				<path class="st0" d="M168.7,122.1l8.4,2.5c0.5,0.1,1-0.1,1.1-0.6l1.3-4.2c0.1-0.5-0.1-1-0.6-1.1l-8.4-2.5
					c-0.5-0.1-1,0.1-1.1,0.6l-1.3,4.2C168,121.4,168.2,121.9,168.7,122.1z"/>
				<path class="st0" d="M203.2,131.5l8.4,2.5c0.5,0.1,1-0.1,1.1-0.6l1.3-4.2c0.1-0.5-0.1-1-0.6-1.1l-8.4-2.5
					c-0.5-0.1-1,0.1-1.1,0.6l-1.3,4.2C202.5,130.9,202.7,131.4,203.2,131.5z"/>
				<path class="st0" d="M241.2,148.5l-7.7-2.3c0,0,0.6-9.9-3.2-13l12.9,8.7L241.2,148.5z"/>
				<path class="st0" d="M185.3,108.7l-6.1,20.5l19.5,5.8l6.3-21.1c0.9-3.1-1-6.4-4.2-7.1l-8.9-2C189,104.2,186.1,105.9,185.3,108.7
					z M202.5,110.3c0.1-0.3,0.3-0.4,0.6-0.3h0.1c0.3,0.1,0.4,0.3,0.3,0.6l-6.7,22.3c-0.1,0.3-0.3,0.4-0.6,0.3h-0.1
					c-0.3-0.1-0.4-0.3-0.3-0.6L202.5,110.3z M199.2,108.7c0.1-0.3,0.3-0.4,0.6-0.3h0.1c0.3,0.1,0.4,0.3,0.3,0.6l-6.8,22.8
					c-0.1,0.3-0.3,0.4-0.6,0.3h-0.1c-0.3-0.1-0.4-0.3-0.3-0.6L199.2,108.7z M195.8,107.7c0.1-0.3,0.3-0.4,0.6-0.3h0.1
					c0.3,0.1,0.4,0.3,0.3,0.6l-6.8,22.8c-0.1,0.3-0.3,0.4-0.6,0.3h-0.1c-0.3-0.1-0.4-0.3-0.3-0.6L195.8,107.7z M192.2,107.2
					c0.1-0.3,0.3-0.4,0.6-0.3h0.1c0.3,0.1,0.4,0.3,0.3,0.6l-6.7,22.3c-0.1,0.3-0.3,0.4-0.6,0.3h-0.1c-0.3-0.1-0.4-0.3-0.3-0.6
					L192.2,107.2z M188.5,107.2c0.1-0.3,0.3-0.4,0.6-0.3h0.1c0.3,0.1,0.4,0.3,0.3,0.6l-6.4,21.3c-0.1,0.3-0.3,0.4-0.6,0.3h-0.1
					c-0.3-0.1-0.4-0.3-0.3-0.6L188.5,107.2z"/>
				<path class="st0" d="M158.1,124.8l-3.3,10.9c-0.2,0.8,0.2,1.6,1,1.9l5.9,1.8c0.8,2.5,2.4,4.4,4.6,5.1l4.4,1.3
					c2.2,0.6,4.5,0,6.6-1.7l33.5,10c0.8,2.5,2.4,4.4,4.6,5.1l4.4,1.3c2.2,0.7,4.5,0,6.6-1.7l80.5,30.2l-31-20.4
					c-1.6-1-2.3-3-1.8-4.8l11.6-38.7c1-3.3,5.3-4.2,7.5-1.4l18.6,23.4l-28.6-44.9c-1.1-1.7-2.8-2.8-4.7-3L262.1,97l2.1-7.2
					c0.6-2.1-0.6-4.4-2.7-5l0,0c-2.1-0.6-4.4,0.6-5,2.7l-2.5,8.4l-19.3-2.6c-1-0.1-2,0.5-2.2,1.4l-0.8,2.7c-1.6-0.2-3.1-0.4-4.6-0.5
					l2.7-9c0.6-2.1-0.6-4.4-2.7-5l0,0c-2.1-0.6-4.4,0.6-5,2.7l-3.3,11.2c-3,0.2-5.4,0.8-7.1,1.8c-0.2,0.1-0.4,0.3-0.5,0.5l-2.8,4.8
					l-14.2-3c-5.9-1.3-11.7,2.2-13.5,8l-0.6,1.9c-1.4,0.2-3.8,0.8-6.1,2.7l-3.2-1c-1.7-0.5-3.5,0.5-4,2.1l-2,6.8l-5.9,2.7
					C158.5,124,158.2,124.4,158.1,124.8z M222,148.4c-0.5-0.2-0.7-1.2-0.4-2.4s1.1-2,1.6-1.8s0.7,1.2,0.4,2.4
					C223.3,147.7,222.6,148.5,222,148.4z M217,144.6c1.7-5.7,5.4-9.7,8.3-8.8c0.2,0.1,0.4,0.1,0.6,0.2c-2.8-0.2-6.1,3.6-7.7,8.9
					c-1.6,5.3-0.9,10.3,1.6,11.7c-0.2,0-0.4,0-0.6-0.1C216.2,155.6,215.3,150.3,217,144.6z M159.5,125.2l6.3-2.8l0,0l0.3-0.1
					l0.1-0.2l2.2-7.2c0.3-0.9,1.2-1.4,2.1-1.1l4,1.2c3.2-3.1,6.9-2.9,6.9-2.9l0.9-2.9c1.5-5,6.6-8,11.7-6.9l15.2,3.3l3.4-5.8
					c1.8-1,4.4-1.5,7.5-1.7l3.6-12.2c0.4-1.3,1.8-2.1,3.1-1.7l0,0c1.3,0.4,2.1,1.8,1.7,3.1L225.1,98c9.7,0.6,21.5,3.5,28.2,5.3
					l4.7-15.6c0.4-1.3,1.8-2.1,3.1-1.7l0,0c1.3,0.4,2.1,1.8,1.7,3.1l-18.1,60.4c0.3,0.1,0.5,0.1,0.5,0.1l15.4-47.1
					c6.1,3.7,8.2,11.8,8.2,11.8l-13.6,45.4l-23.6-8.9l-1.5-0.4l0,0l0,0c0,0,0,0,0-0.1v-0.1v-0.1V150v-0.1c0,0,0-0.1,0-0.2
					c0-0.1,0-0.1,0-0.2c0-0.1,0-0.2,0-0.3v-0.1c0-0.1,0-0.2,0-0.3l0,0c0-0.2,0.1-0.4,0.1-0.6v-0.1c0-0.1,0-0.2,0-0.4c0,0,0,0,0-0.1
					c0-0.4,0.1-0.8,0.1-1.3c0,0,0,0,0-0.1c0-0.5,0.1-0.9,0.1-1.4c0,0,0,0,0-0.1c0-0.5,0-1,0.1-1.5c0,0,0,0,0-0.1c0-0.5,0-1,0-1.6
					c0,0,0,0,0-0.1c0-0.2,0-0.3,0-0.5c0,0,0,0,0-0.1c0-0.3,0-0.7-0.1-1l0,0c0-0.2,0-0.3,0-0.5v-0.1c-0.1-0.5-0.1-0.9-0.2-1.4
					c0-0.1,0-0.1,0-0.2c-0.5-2.5-1.6-4.6-3.7-5.3c-2.2-0.7-4.1,0.1-5.8,1.6c-0.1,0.1-0.2,0.2-0.3,0.3s-0.2,0.2-0.3,0.3
					s-0.2,0.2-0.3,0.3s-0.2,0.2-0.3,0.3s-0.2,0.2-0.3,0.3c-0.2,0.2-0.3,0.4-0.5,0.7c-0.1,0.1-0.2,0.2-0.3,0.4
					c-0.1,0.1-0.2,0.3-0.3,0.4c-0.1,0.1-0.1,0.2-0.2,0.3c-0.1,0.2-0.2,0.3-0.3,0.5c-0.1,0.1-0.1,0.2-0.2,0.4
					c-0.1,0.2-0.2,0.3-0.3,0.5c-0.1,0.1-0.1,0.2-0.2,0.4c-0.2,0.3-0.3,0.6-0.5,0.9c-0.1,0.1-0.1,0.2-0.2,0.3
					c-0.1,0.2-0.2,0.4-0.2,0.5c-0.1,0.1-0.1,0.2-0.2,0.4c-0.1,0.2-0.2,0.4-0.2,0.5s-0.1,0.2-0.1,0.4c-0.3,0.6-0.5,1.3-0.7,1.9
					c0,0.1-0.1,0.2-0.1,0.3c-0.1,0.2-0.1,0.4-0.2,0.5c0,0.1-0.1,0.2-0.1,0.4c-0.1,0.2-0.1,0.3-0.2,0.5c0,0.1-0.1,0.2-0.1,0.4
					c-0.1,0.3-0.2,0.6-0.3,0.9c0,0.1-0.1,0.2-0.1,0.3c0,0.2-0.1,0.3-0.1,0.5c0,0.1-0.1,0.2-0.1,0.3s-0.1,0.3-0.1,0.4
					c0,0.1-0.1,0.2-0.1,0.3s-0.1,0.3-0.1,0.4c0,0.1-0.1,0.2-0.1,0.3c-0.1,0.2-0.1,0.4-0.2,0.6c0,0.1,0,0.2-0.1,0.3
					c0,0.1-0.1,0.2-0.1,0.3s0,0.2-0.1,0.3c0,0.1,0,0.2-0.1,0.3c0,0.1,0,0.2-0.1,0.3c0,0.1,0,0.1,0,0.2c0,0.1-0.1,0.2-0.1,0.4v0.1
					c0,0.1,0,0.1,0,0.2v0.1c0,0.1,0,0.1,0,0.1l0,0v0.1l-2.2-0.7l-31.8-9.5l-17.4-5.2l-5-1.5L159.5,125.2z"/>
			</g>
			
				<rect x="226.8" y="115" transform="matrix(0.2866 -0.9581 0.9581 0.2866 70.3768 325.2928)" class="st0" width="53.6" height="0.8"/>
			
				<rect x="219.9" y="91.7" transform="matrix(0.2866 -0.9581 0.9581 0.2866 72.673 281.7231)" class="st0" width="11.3" height="0.8"/>
		</g>
	</g>
</g>
</svg>
